<?xml version="1.0" standalone="no"?>
<!DOCTYPE svg PUBLIC "-//W3C//DTD SVG 20010904//EN"
 "http://www.w3.org/TR/2001/REC-SVG-20010904/DTD/svg10.dtd">
<svg version="1.0" xmlns="http://www.w3.org/2000/svg"
 width="262.000000pt" height="167.000000pt" viewBox="0 0 262.000000 167.000000"
 preserveAspectRatio="xMidYMid meet">

<g transform="translate(0.000000,167.000000) scale(0.100000,-0.100000)"
fill="#000000" stroke="none">
<path d="M0 835 l0 -835 1310 0 1310 0 0 835 0 835 -1310 0 -1310 0 0 -835z
m1047 579 c37 -9 95 -19 128 -23 39 -4 60 -10 59 -18 -1 -7 -2 -74 -2 -148 -2
-123 -4 -135 -20 -135 -14 0 -23 17 -39 73 -41 136 -136 212 -268 211 -113 0
-176 -44 -205 -141 -25 -81 24 -173 128 -245 51 -35 332 -160 332 -148 0 5 8
6 19 3 13 -3 20 2 26 19 l7 23 7 -25 c4 -14 13 -25 21 -26 36 -2 43 -4 37 -10
-8 -8 11 -44 23 -44 10 0 24 29 127 274 l75 179 -28 58 c-15 33 -26 61 -23 63
9 8 142 66 153 66 10 0 177 -384 403 -925 75 -181 105 -220 171 -231 23 -4 39
-10 36 -15 -6 -11 -62 0 -94 18 -34 20 -61 62 -100 153 -52 124 -47 120 -149
120 l-88 0 -28 63 c-15 34 -31 64 -35 67 -8 7 -44 84 -126 278 -38 89 -72 162
-75 162 -4 0 -39 -82 -79 -182 -40 -101 -76 -187 -80 -191 -4 -4 -13 -1 -20 8
-11 14 -60 22 -60 10 0 -3 14 -30 31 -61 26 -45 33 -70 36 -127 3 -59 1 -68
-8 -50 -11 21 -17 22 -68 16 -31 -3 -57 -10 -59 -14 -2 -5 -36 24 -75 64 -40
40 -88 79 -107 86 -19 7 -55 23 -80 34 -25 11 -72 31 -104 44 -84 33 -189 97
-221 134 -14 18 -38 55 -53 83 -22 43 -26 64 -26 136 0 88 14 130 67 201 79
108 260 154 434 113z m618 -775 c4 -11 5 -21 3 -22 -1 -1 -60 -1 -130 1 -115
3 -129 5 -138 23 -10 18 -6 19 124 19 127 0 135 -1 141 -21z m-1060 -120 c56
-219 295 -352 473 -263 53 26 102 82 102 116 0 9 5 20 10 23 18 11 0 -46 -27
-88 -53 -83 -211 -114 -338 -66 -76 28 -162 109 -205 194 -18 36 -36 63 -39
59 -3 -3 -9 -33 -12 -67 -5 -54 -6 -49 -7 41 -2 92 0 103 15 100 10 -2 21 -20
28 -49z"/>
</g>
</svg>
